<svg width="48" height="47" xmlns="http://www.w3.org/2000/svg" xmlns:xlink="http://www.w3.org/1999/xlink" xml:space="preserve" overflow="hidden"><defs><clipPath id="clip0"><rect x="1070" y="562" width="48" height="47"/></clipPath></defs><g clip-path="url(#clip0)" transform="translate(-1070 -562)"><path d="M22.5208 14.7365 22.5208 16.6948C22.8635 16.6948 23.1573 16.6458 23.5 16.6458 23.8427 16.6458 24.1365 16.6458 24.4792 16.6948L24.4792 14.7365C26.3885 14.8344 28.2 15.226 29.8646 15.8625L29.1302 17.625C29.7667 17.8698 30.3542 18.1146 30.9417 18.4083L31.676 16.5969C32.6063 17.0375 33.4385 17.576 34.2708 18.1635L36.376 16.0583C32.8021 13.3656 28.3469 11.75 23.5 11.75 11.6031 11.75 1.95833 21.3948 1.95833 33.2917L1.95833 35.25 4.89583 35.25 4.89583 33.2917C4.89583 31.2844 5.23854 29.326 5.82604 27.5146L7.6375 28.249C7.83333 27.6125 8.07812 27.025 8.32292 26.4375L6.51146 25.7031C7.24583 24.0385 8.27396 22.4719 9.44896 21.15L10.8198 22.5208C11.2604 22.0312 11.701 21.5417 12.1906 21.101L10.8198 19.7302C12.1417 18.5063 13.6594 17.4292 15.324 16.5969L16.0583 18.4083C16.6458 18.1146 17.2333 17.8698 17.8698 17.625L17.1354 15.8135C18.8 15.1771 20.6115 14.8344 22.5208 14.7365Z" fill="#ED7D31" transform="matrix(1.02128 0 0 1 1070 562)"/><path d="M41.174 20.9542 39.0688 23.0594C39.6073 23.8917 40.0969 24.7729 40.4885 25.6542L38.6771 26.4375C38.9219 27.025 39.1667 27.6615 39.3625 28.249L41.174 27.5146C41.7615 29.326 42.1042 31.2844 42.1042 33.2917L42.1042 35.25 45.0417 35.25 45.0417 33.2917C45.0417 28.6896 43.6219 24.4792 41.174 20.9542Z" fill="#ED7D31" transform="matrix(1.02128 0 0 1 1070 562)"/><path d="M22.1292 32.4104C22.0312 32.4594 21.9823 32.5573 21.8844 32.6552 21.199 33.4875 21.2969 34.7115 22.1292 35.4458 22.9615 36.1313 24.1854 36.0333 24.9198 35.201L40.1458 17.1354 22.1292 32.4104Z" fill="#ED7D31" transform="matrix(1.02128 0 0 1 1070 562)"/></g></svg>