<svg width="54" height="54" xmlns="http://www.w3.org/2000/svg" xmlns:xlink="http://www.w3.org/1999/xlink" xml:space="preserve" overflow="hidden"><defs><clipPath id="clip0"><rect x="814" y="614" width="54" height="54"/></clipPath></defs><g clip-path="url(#clip0)" transform="translate(-814 -614)"><path d="M839.875 630.931 839.875 633.181C840.269 633.181 840.606 633.125 841 633.125 841.394 633.125 841.731 633.125 842.125 633.181L842.125 630.931C844.319 631.044 846.4 631.494 848.312 632.225L847.469 634.25C848.2 634.531 848.875 634.812 849.55 635.15L850.394 633.069C851.463 633.575 852.419 634.194 853.375 634.869L855.794 632.45C851.688 629.356 846.569 627.5 841 627.5 827.331 627.5 816.25 638.581 816.25 652.25L816.25 654.5 819.625 654.5 819.625 652.25C819.625 649.944 820.019 647.694 820.694 645.612L822.775 646.456C823 645.725 823.281 645.05 823.562 644.375L821.481 643.531C822.325 641.619 823.506 639.819 824.856 638.3L826.431 639.875C826.938 639.312 827.444 638.75 828.006 638.244L826.431 636.669C827.95 635.263 829.694 634.025 831.606 633.069L832.45 635.15C833.125 634.812 833.8 634.531 834.531 634.25L833.688 632.169C835.6 631.438 837.681 631.044 839.875 630.931Z" fill="#C00000"/><path d="M861.306 638.075 858.888 640.494C859.506 641.45 860.069 642.463 860.519 643.475L858.438 644.375C858.719 645.05 859 645.781 859.225 646.456L861.306 645.612C861.981 647.694 862.375 649.944 862.375 652.25L862.375 654.5 865.75 654.5 865.75 652.25C865.75 646.963 864.119 642.125 861.306 638.075Z" fill="#C00000"/><path d="M839.425 651.237C839.312 651.294 839.256 651.406 839.144 651.519 838.356 652.475 838.469 653.881 839.425 654.725 840.381 655.513 841.787 655.4 842.631 654.444L860.125 633.688 839.425 651.237Z" fill="#C00000"/></g></svg>